  0
SECTION
  2
HEADER
  9
$ACADVER
  1
AC1009
  0
ENDSEC
  0
SECTION
  2
TABLES
  0
TABLE
  2
STYLE
  0
STYLE
  2
STANDARD
 70
64
 40
0
 41
1
 50
0
 71
0
 42
0
  3
txt
  4

  0
ENDTAB
  0
ENDSEC
  0
SECTION
  2
BLOCKS
  0
BLOCK
  2
GRADA3-38
  8
1
 10
0.00
 20
0.00
 70
64
  0
POLYLINE
  8
14
 10
0
 20
0
 66
1
  0
VERTEX
  8
14
 10
46.51
 20
154.11
  0
VERTEX
  8
14
 10
46.80
 20
152.58
  0
VERTEX
  8
14
 10
47.14
 20
151.06
  0
VERTEX
  8
14
 10
47.54
 20
149.55
  0
VERTEX
  8
14
 10
47.99
 20
148.06
  0
VERTEX
  8
14
 10
48.49
 20
146.58
  0
VERTEX
  8
14
 10
49.04
 20
145.12
  0
VERTEX
  8
14
 10
49.64
 20
143.68
  0
VERTEX
  8
14
 10
50.28
 20
142.26
  0
VERTEX
  8
14
 10
50.98
 20
140.87
  0
VERTEX
  8
14
 10
51.72
 20
139.50
  0
VERTEX
  8
14
 10
52.51
 20
138.15
  0
VERTEX
  8
14
 10
53.35
 20
136.84
  0
VERTEX
  8
14
 10
54.23
 20
135.55
  0
VERTEX
  8
14
 10
55.15
 20
134.29
  0
VERTEX
  8
14
 10
56.12
 20
133.07
  0
VERTEX
  8
14
 10
57.12
 20
131.88
  0
VERTEX
  8
14
 10
58.68
 20
130.14
  0
VERTEX
  8
14
 10
60.27
 20
128.45
  0
VERTEX
  8
14
 10
61.90
 20
126.78
  0
VERTEX
  8
14
 10
63.57
 20
125.16
  0
VERTEX
  8
14
 10
65.27
 20
123.57
  0
VERTEX
  8
14
 10
67.01
 20
122.03
  0
VERTEX
  8
14
 10
68.79
 20
120.52
  0
VERTEX
  8
14
 10
70.60
 20
119.05
  0
VERTEX
  8
14
 10
72.44
 20
117.63
  0
VERTEX
  8
14
 10
74.31
 20
116.24
  0
VERTEX
  8
14
 10
76.21
 20
114.90
  0
VERTEX
  8
14
 10
78.15
 20
113.60
  0
VERTEX
  8
14
 10
80.11
 20
112.35
  0
VERTEX
  8
14
 10
82.10
 20
111.14
  0
VERTEX
  8
14
 10
84.12
 20
109.98
  0
VERTEX
  8
14
 10
86.16
 20
108.86
  0
VERTEX
  8
14
 10
91.02
 20
105.95
  0
VERTEX
  8
14
 10
95.83
 20
102.96
  0
VERTEX
  8
14
 10
100.59
 20
99.90
  0
VERTEX
  8
14
 10
105.29
 20
96.75
  0
VERTEX
  8
14
 10
109.95
 20
93.53
  0
VERTEX
  8
14
 10
114.55
 20
90.23
  0
VERTEX
  8
14
 10
119.10
 20
86.86
  0
VERTEX
  8
14
 10
123.59
 20
83.41
  0
VERTEX
  8
14
 10
127.70
 20
80.15
  0
VERTEX
  8
14
 10
131.75
 20
76.81
  0
VERTEX
  8
14
 10
135.74
 20
73.39
  0
VERTEX
  8
14
 10
139.67
 20
69.91
  0
VERTEX
  8
14
 10
143.54
 20
66.36
  0
VERTEX
  8
14
 10
147.34
 20
62.74
  0
VERTEX
  8
14
 10
151.08
 20
59.06
  0
VERTEX
  8
14
 10
154.75
 20
55.30
  0
VERTEX
  8
14
 10
156.38
 20
53.49
  0
VERTEX
  8
14
 10
157.96
 20
51.64
  0
VERTEX
  8
14
 10
159.51
 20
49.76
  0
VERTEX
  8
14
 10
161.02
 20
47.85
  0
VERTEX
  8
14
 10
162.49
 20
45.91
  0
VERTEX
  8
14
 10
163.92
 20
43.94
  0
VERTEX
  8
14
 10
165.31
 20
41.94
  0
VERTEX
  8
14
 10
166.65
 20
39.90
  0
VERTEX
  8
14
 10
167.95
 20
37.85
  0
VERTEX
  8
14
 10
169.21
 20
35.76
  0
VERTEX
  8
14
 10
170.43
 20
33.65
  0
VERTEX
  8
14
 10
171.60
 20
31.51
  0
VERTEX
  8
14
 10
172.72
 20
29.35
  0
VERTEX
  8
14
 10
173.80
 20
27.17
  0
VERTEX
  8
14
 10
174.83
 20
24.96
  0
VERTEX
  8
14
 10
175.82
 20
22.74
  0
VERTEX
  8
14
 10
176.53
 20
21.01
  0
VERTEX
  8
14
 10
177.20
 20
19.27
  0
VERTEX
  8
14
 10
177.82
 20
17.51
  0
VERTEX
  8
14
 10
178.39
 20
15.73
  0
VERTEX
  8
14
 10
178.91
 20
13.94
  0
VERTEX
  8
14
 10
179.38
 20
12.14
  0
VERTEX
  8
14
 10
179.80
 20
10.32
  0
VERTEX
  8
14
 10
180.17
 20
8.49
  0
VERTEX
  8
14
 10
180.49
 20
6.66
  0
VERTEX
  8
14
 10
180.76
 20
4.81
  0
VERTEX
  8
14
 10
180.98
 20
2.96
  0
VERTEX
  8
14
 10
181.14
 20
1.10
  0
VERTEX
  8
14
 10
181.26
 20
-0.76
  0
VERTEX
  8
14
 10
181.33
 20
-2.63
  0
VERTEX
  8
14
 10
181.34
 20
-4.49
  0
VERTEX
  8
14
 10
181.30
 20
-6.36
  0
VERTEX
  8
14
 10
181.29
 20
-9.08
  0
VERTEX
  8
14
 10
181.15
 20
-11.81
  0
VERTEX
  8
14
 10
180.88
 20
-14.52
  0
VERTEX
  8
14
 10
180.48
 20
-17.22
  0
VERTEX
  8
14
 10
179.96
 20
-19.90
  0
VERTEX
  8
14
 10
179.31
 20
-22.55
  0
VERTEX
  8
14
 10
178.54
 20
-25.17
  0
VERTEX
  8
14
 10
177.65
 20
-27.74
  0
VERTEX
  8
14
 10
176.64
 20
-30.28
  0
VERTEX
  8
14
 10
175.51
 20
-32.76
  0
VERTEX
  8
14
 10
174.26
 20
-35.19
  0
VERTEX
  8
14
 10
172.91
 20
-37.55
  0
VERTEX
  8
14
 10
171.44
 20
-39.85
  0
VERTEX
  8
14
 10
169.87
 20
-42.08
  0
VERTEX
  8
14
 10
168.19
 20
-44.23
  0
VERTEX
  8
14
 10
166.42
 20
-46.31
  0
VERTEX
  8
14
 10
163.57
 20
-49.39
  0
VERTEX
  8
14
 10
160.63
 20
-52.38
  0
VERTEX
  8
14
 10
157.60
 20
-55.29
  0
VERTEX
  8
14
 10
154.49
 20
-58.10
  0
VERTEX
  8
14
 10
151.30
 20
-60.82
  0
VERTEX
  8
14
 10
148.03
 20
-63.45
  0
VERTEX
  8
14
 10
144.68
 20
-65.97
  0
VERTEX
  8
14
 10
141.25
 20
-68.40
  0
VERTEX
  8
14
 10
137.76
 20
-70.73
  0
VERTEX
  8
14
 10
134.20
 20
-72.95
  0
VERTEX
  8
14
 10
130.58
 20
-75.06
  0
VERTEX
  8
14
 10
126.89
 20
-77.06
  0
VERTEX
  8
14
 10
123.15
 20
-78.96
  0
VERTEX
  8
14
 10
119.35
 20
-80.74
  0
VERTEX
  8
14
 10
115.50
 20
-82.41
  0
VERTEX
  8
14
 10
111.60
 20
-83.97
  0
VERTEX
  8
14
 10
108.00
 20
-85.66
  0
VERTEX
  8
14
 10
104.44
 20
-87.41
  0
VERTEX
  8
14
 10
100.90
 20
-89.23
  0
VERTEX
  8
14
 10
97.39
 20
-91.11
  0
VERTEX
  8
14
 10
93.92
 20
-93.05
  0
VERTEX
  8
14
 10
90.48
 20
-95.05
  0
VERTEX
  8
14
 10
87.08
 20
-97.11
  0
VERTEX
  8
14
 10
83.72
 20
-99.24
  0
VERTEX
  8
14
 10
81.77
 20
-100.53
  0
VERTEX
  8
14
 10
79.86
 20
-101.88
  0
VERTEX
  8
14
 10
77.99
 20
-103.29
  0
VERTEX
  8
14
 10
76.17
 20
-104.76
  0
VERTEX
  8
14
 10
74.39
 20
-106.28
  0
VERTEX
  8
14
 10
72.66
 20
-107.85
  0
VERTEX
  8
14
 10
70.98
 20
-109.48
  0
VERTEX
  8
14
 10
69.34
 20
-111.15
  0
VERTEX
  8
14
 10
67.58
 20
-113.30
  0
VERTEX
  8
14
 10
65.87
 20
-115.49
  0
VERTEX
  8
14
 10
64.22
 20
-117.72
  0
VERTEX
  8
14
 10
62.63
 20
-120.00
  0
VERTEX
  8
14
 10
61.10
 20
-122.32
  0
VERTEX
  8
14
 10
59.64
 20
-124.68
  0
VERTEX
  8
14
 10
58.23
 20
-127.08
  0
VERTEX
  8
14
 10
56.89
 20
-129.51
  0
VERTEX
  8
14
 10
55.36
 20
-132.46
  0
VERTEX
  8
14
 10
53.89
 20
-135.45
  0
VERTEX
  8
14
 10
52.49
 20
-138.46
  0
VERTEX
  8
14
 10
51.16
 20
-141.51
  0
VERTEX
  8
14
 10
49.89
 20
-144.58
  0
VERTEX
  8
14
 10
48.70
 20
-147.68
  0
VERTEX
  8
14
 10
47.57
 20
-150.81
  0
VERTEX
  8
14
 10
46.51
 20
-153.96
  0
VERTEX
  8
14
 10
20.00
 20
-154.04
  0
VERTEX
  8
14
 10
20.00
 20
154.11
  0
VERTEX
  8
14
 10
46.51
 20
154.11
  0
VERTEX
  8
14
 10
46.51
 20
154.11
  0
SEQEND
  0
POINT
  8
2
 10
46.51
 20
154.11
  0
TEXT
  8
14
 10
46.51
 20
154.11
 40
8.00
  1
# 2
  0
POINT
  8
3
 10
46.80
 20
152.58
  0
POINT
  8
3
 10
47.14
 20
151.06
  0
POINT
  8
3
 10
47.54
 20
149.55
  0
POINT
  8
3
 10
47.99
 20
148.06
  0
POINT
  8
3
 10
48.49
 20
146.58
  0
POINT
  8
3
 10
49.04
 20
145.12
  0
POINT
  8
3
 10
49.64
 20
143.68
  0
POINT
  8
3
 10
50.28
 20
142.26
  0
POINT
  8
3
 10
50.98
 20
140.87
  0
POINT
  8
3
 10
51.72
 20
139.50
  0
POINT
  8
3
 10
52.51
 20
138.15
  0
POINT
  8
3
 10
53.35
 20
136.84
  0
POINT
  8
3
 10
54.23
 20
135.55
  0
POINT
  8
3
 10
55.15
 20
134.29
  0
POINT
  8
3
 10
56.12
 20
133.07
  0
POINT
  8
3
 10
57.12
 20
131.88
  0
POINT
  8
3
 10
58.68
 20
130.14
  0
POINT
  8
3
 10
60.27
 20
128.45
  0
POINT
  8
3
 10
61.90
 20
126.78
  0
POINT
  8
3
 10
63.57
 20
125.16
  0
POINT
  8
3
 10
65.27
 20
123.57
  0
POINT
  8
3
 10
67.01
 20
122.03
  0
POINT
  8
3
 10
68.79
 20
120.52
  0
POINT
  8
3
 10
70.60
 20
119.05
  0
POINT
  8
3
 10
72.44
 20
117.63
  0
POINT
  8
3
 10
74.31
 20
116.24
  0
POINT
  8
3
 10
76.21
 20
114.90
  0
POINT
  8
3
 10
78.15
 20
113.60
  0
POINT
  8
3
 10
80.11
 20
112.35
  0
POINT
  8
3
 10
82.10
 20
111.14
  0
POINT
  8
3
 10
84.12
 20
109.98
  0
POINT
  8
3
 10
86.16
 20
108.86
  0
POINT
  8
3
 10
91.02
 20
105.95
  0
POINT
  8
3
 10
95.83
 20
102.96
  0
POINT
  8
3
 10
100.59
 20
99.90
  0
POINT
  8
3
 10
105.29
 20
96.75
  0
POINT
  8
3
 10
109.95
 20
93.53
  0
POINT
  8
3
 10
114.55
 20
90.23
  0
POINT
  8
3
 10
119.10
 20
86.86
  0
POINT
  8
3
 10
123.59
 20
83.41
  0
POINT
  8
3
 10
127.70
 20
80.15
  0
POINT
  8
3
 10
131.75
 20
76.81
  0
POINT
  8
3
 10
135.74
 20
73.39
  0
POINT
  8
3
 10
139.67
 20
69.91
  0
POINT
  8
3
 10
143.54
 20
66.36
  0
POINT
  8
3
 10
147.34
 20
62.74
  0
POINT
  8
3
 10
151.08
 20
59.06
  0
POINT
  8
3
 10
154.75
 20
55.30
  0
POINT
  8
3
 10
156.38
 20
53.49
  0
POINT
  8
3
 10
157.96
 20
51.64
  0
POINT
  8
3
 10
159.51
 20
49.76
  0
POINT
  8
3
 10
161.02
 20
47.85
  0
POINT
  8
3
 10
162.49
 20
45.91
  0
POINT
  8
3
 10
163.92
 20
43.94
  0
POINT
  8
3
 10
165.31
 20
41.94
  0
POINT
  8
3
 10
166.65
 20
39.90
  0
POINT
  8
3
 10
167.95
 20
37.85
  0
POINT
  8
3
 10
169.21
 20
35.76
  0
POINT
  8
3
 10
170.43
 20
33.65
  0
POINT
  8
3
 10
171.60
 20
31.51
  0
POINT
  8
3
 10
172.72
 20
29.35
  0
POINT
  8
3
 10
173.80
 20
27.17
  0
POINT
  8
3
 10
174.83
 20
24.96
  0
POINT
  8
3
 10
175.82
 20
22.74
  0
POINT
  8
3
 10
176.53
 20
21.01
  0
POINT
  8
3
 10
177.20
 20
19.27
  0
POINT
  8
3
 10
177.82
 20
17.51
  0
POINT
  8
3
 10
178.39
 20
15.73
  0
POINT
  8
3
 10
178.91
 20
13.94
  0
POINT
  8
3
 10
179.38
 20
12.14
  0
POINT
  8
3
 10
179.80
 20
10.32
  0
POINT
  8
3
 10
180.17
 20
8.49
  0
POINT
  8
3
 10
180.49
 20
6.66
  0
POINT
  8
3
 10
180.76
 20
4.81
  0
POINT
  8
3
 10
180.98
 20
2.96
  0
POINT
  8
3
 10
181.14
 20
1.10
  0
POINT
  8
3
 10
181.26
 20
-0.76
  0
POINT
  8
3
 10
181.33
 20
-2.63
  0
POINT
  8
3
 10
181.34
 20
-4.49
  0
POINT
  8
3
 10
181.30
 20
-6.36
  0
TEXT
  8
14
 10
181.30
 20
-6.36
 40
8.00
  1
# 3
  0
POINT
  8
3
 10
181.29
 20
-9.08
  0
POINT
  8
3
 10
181.15
 20
-11.81
  0
POINT
  8
3
 10
180.88
 20
-14.52
  0
POINT
  8
3
 10
180.48
 20
-17.22
  0
POINT
  8
3
 10
179.96
 20
-19.90
  0
POINT
  8
3
 10
179.31
 20
-22.55
  0
POINT
  8
3
 10
178.54
 20
-25.17
  0
POINT
  8
3
 10
177.65
 20
-27.74
  0
POINT
  8
3
 10
176.64
 20
-30.28
  0
POINT
  8
3
 10
175.51
 20
-32.76
  0
POINT
  8
3
 10
174.26
 20
-35.19
  0
POINT
  8
3
 10
172.91
 20
-37.55
  0
POINT
  8
3
 10
171.44
 20
-39.85
  0
POINT
  8
3
 10
169.87
 20
-42.08
  0
POINT
  8
3
 10
168.19
 20
-44.23
  0
POINT
  8
3
 10
166.42
 20
-46.31
  0
POINT
  8
3
 10
163.57
 20
-49.39
  0
POINT
  8
3
 10
160.63
 20
-52.38
  0
POINT
  8
3
 10
157.60
 20
-55.29
  0
POINT
  8
3
 10
154.49
 20
-58.10
  0
POINT
  8
3
 10
151.30
 20
-60.82
  0
POINT
  8
3
 10
148.03
 20
-63.45
  0
POINT
  8
3
 10
144.68
 20
-65.97
  0
POINT
  8
3
 10
141.25
 20
-68.40
  0
POINT
  8
3
 10
137.76
 20
-70.73
  0
POINT
  8
3
 10
134.20
 20
-72.95
  0
POINT
  8
3
 10
130.58
 20
-75.06
  0
POINT
  8
3
 10
126.89
 20
-77.06
  0
POINT
  8
3
 10
123.15
 20
-78.96
  0
POINT
  8
3
 10
119.35
 20
-80.74
  0
POINT
  8
3
 10
115.50
 20
-82.41
  0
POINT
  8
3
 10
111.60
 20
-83.97
  0
POINT
  8
3
 10
108.00
 20
-85.66
  0
POINT
  8
3
 10
104.44
 20
-87.41
  0
POINT
  8
3
 10
100.90
 20
-89.23
  0
POINT
  8
3
 10
97.39
 20
-91.11
  0
POINT
  8
3
 10
93.92
 20
-93.05
  0
POINT
  8
3
 10
90.48
 20
-95.05
  0
POINT
  8
3
 10
87.08
 20
-97.11
  0
POINT
  8
3
 10
83.72
 20
-99.24
  0
POINT
  8
3
 10
81.77
 20
-100.53
  0
POINT
  8
3
 10
79.86
 20
-101.88
  0
POINT
  8
3
 10
77.99
 20
-103.29
  0
POINT
  8
3
 10
76.17
 20
-104.76
  0
POINT
  8
3
 10
74.39
 20
-106.28
  0
POINT
  8
3
 10
72.66
 20
-107.85
  0
POINT
  8
3
 10
70.98
 20
-109.48
  0
POINT
  8
3
 10
69.34
 20
-111.15
  0
POINT
  8
3
 10
67.58
 20
-113.30
  0
POINT
  8
3
 10
65.87
 20
-115.49
  0
POINT
  8
3
 10
64.22
 20
-117.72
  0
POINT
  8
3
 10
62.63
 20
-120.00
  0
POINT
  8
3
 10
61.10
 20
-122.32
  0
POINT
  8
3
 10
59.64
 20
-124.68
  0
POINT
  8
3
 10
58.23
 20
-127.08
  0
POINT
  8
3
 10
56.89
 20
-129.51
  0
POINT
  8
3
 10
55.36
 20
-132.46
  0
POINT
  8
3
 10
53.89
 20
-135.45
  0
POINT
  8
3
 10
52.49
 20
-138.46
  0
POINT
  8
3
 10
51.16
 20
-141.51
  0
POINT
  8
3
 10
49.89
 20
-144.58
  0
POINT
  8
3
 10
48.70
 20
-147.68
  0
POINT
  8
3
 10
47.57
 20
-150.81
  0
POINT
  8
2
 10
46.51
 20
-153.96
  0
TEXT
  8
14
 10
46.51
 20
-153.96
 40
8.00
  1
# 4
  0
POINT
  8
2
 10
20.00
 20
-154.04
  0
TEXT
  8
14
 10
20.00
 20
-154.04
 40
8.00
  1
# 5
  0
POINT
  8
2
 10
20.00
 20
154.11
  0
TEXT
  8
14
 10
20.00
 20
154.11
 40
8.00
  1
# 6
  0
POINT
  8
2
 10
46.51
 20
154.11
  0
TEXT
  8
14
 10
46.51
 20
154.11
 40
8.00
  1
# 7
  0
POINT
  8
2
 10
46.51
 20
154.11
  0
TEXT
  8
14
 10
46.51
 20
154.11
 40
8.00
  1
# 2
  0
POLYLINE
  8
1
 10
0
 20
0
 66
1
  0
VERTEX
  8
1
 10
52.20
 20
161.11
  0
VERTEX
  8
1
 10
53.36
 20
155.54
  0
VERTEX
  8
1
 10
53.95
 20
152.72
  0
VERTEX
  8
1
 10
54.66
 20
150.18
  0
VERTEX
  8
1
 10
55.55
 20
147.70
  0
VERTEX
  8
1
 10
56.60
 20
145.28
  0
VERTEX
  8
1
 10
57.81
 20
142.95
  0
VERTEX
  8
1
 10
59.20
 20
140.69
  0
VERTEX
  8
1
 10
60.72
 20
138.54
  0
VERTEX
  8
1
 10
62.42
 20
136.46
  0
VERTEX
  8
1
 10
65.33
 20
133.29
  0
VERTEX
  8
1
 10
68.40
 20
130.23
  0
VERTEX
  8
1
 10
71.61
 20
127.31
  0
VERTEX
  8
1
 10
74.95
 20
124.54
  0
VERTEX
  8
1
 10
78.41
 20
121.92
  0
VERTEX
  8
1
 10
81.98
 20
119.46
  0
VERTEX
  8
1
 10
85.71
 20
117.14
  0
VERTEX
  8
1
 10
94.54
 20
112.00
  0
VERTEX
  8
1
 10
94.65
 20
111.94
  0
VERTEX
  8
1
 10
94.77
 20
111.86
  0
VERTEX
  8
1
 10
104.33
 20
105.81
  0
VERTEX
  8
1
 10
104.42
 20
105.75
  0
VERTEX
  8
1
 10
104.52
 20
105.69
  0
VERTEX
  8
1
 10
113.88
 20
99.32
  0
VERTEX
  8
1
 10
113.99
 20
99.25
  0
VERTEX
  8
1
 10
114.07
 20
99.19
  0
VERTEX
  8
1
 10
123.22
 20
92.52
  0
VERTEX
  8
1
 10
123.32
 20
92.45
  0
VERTEX
  8
1
 10
123.41
 20
92.38
  0
VERTEX
  8
1
 10
132.01
 20
85.66
  0
VERTEX
  8
1
 10
132.10
 20
85.59
  0
VERTEX
  8
1
 10
132.21
 20
85.50
  0
VERTEX
  8
1
 10
133.47
 20
84.44
  0
VERTEX
  8
1
 10
140.24
 20
78.75
  0
VERTEX
  8
1
 10
140.34
 20
78.67
  0
VERTEX
  8
1
 10
140.43
 20
78.59
  0
VERTEX
  8
1
 10
148.22
 20
71.56
  0
VERTEX
  8
1
 10
148.32
 20
71.47
  0
VERTEX
  8
1
 10
148.41
 20
71.39
  0
VERTEX
  8
1
 10
155.95
 20
64.08
  0
VERTEX
  8
1
 10
156.08
 20
63.95
  0
VERTEX
  8
1
 10
159.75
 20
60.20
  0
VERTEX
  8
1
 10
159.88
 20
60.06
  0
VERTEX
  8
1
 10
160.01
 20
59.92
  0
VERTEX
  8
1
 10
163.22
 20
56.26
  0
VERTEX
  8
1
 10
163.32
 20
56.15
  0
VERTEX
  8
1
 10
163.41
 20
56.04
  0
VERTEX
  8
1
 10
166.47
 20
52.25
  0
VERTEX
  8
1
 10
166.56
 20
52.13
  0
VERTEX
  8
1
 10
166.65
 20
52.02
  0
VERTEX
  8
1
 10
169.55
 20
48.10
  0
VERTEX
  8
1
 10
169.63
 20
47.98
  0
VERTEX
  8
1
 10
169.72
 20
47.86
  0
VERTEX
  8
1
 10
172.45
 20
43.83
  0
VERTEX
  8
1
 10
172.53
 20
43.71
  0
VERTEX
  8
1
 10
172.61
 20
43.58
  0
VERTEX
  8
1
 10
175.17
 20
39.44
  0
VERTEX
  8
1
 10
175.24
 20
39.31
  0
VERTEX
  8
1
 10
175.32
 20
39.19
  0
VERTEX
  8
1
 10
177.70
 20
34.94
  0
VERTEX
  8
1
 10
177.77
 20
34.81
  0
VERTEX
  8
1
 10
177.84
 20
34.68
  0
VERTEX
  8
1
 10
180.04
 20
30.33
  0
VERTEX
  8
1
 10
180.11
 20
30.20
  0
VERTEX
  8
1
 10
180.17
 20
30.07
  0
VERTEX
  8
1
 10
182.19
 20
25.64
  0
VERTEX
  8
1
 10
182.26
 20
25.48
  0
VERTEX
  8
1
 10
182.32
 20
25.33
  0
VERTEX
  8
1
 10
183.70
 20
21.86
  0
VERTEX
  8
1
 10
183.78
 20
21.66
  0
VERTEX
  8
1
 10
183.83
 20
21.50
  0
VERTEX
  8
1
 10
185.02
 20
17.96
  0
VERTEX
  8
1
 10
185.08
 20
17.78
  0
VERTEX
  8
1
 10
185.13
 20
17.59
  0
VERTEX
  8
1
 10
186.13
 20
14.00
  0
VERTEX
  8
1
 10
186.17
 20
13.81
  0
VERTEX
  8
1
 10
186.22
 20
13.62
  0
VERTEX
  8
1
 10
187.01
 20
9.98
  0
VERTEX
  8
1
 10
187.05
 20
9.79
  0
VERTEX
  8
1
 10
187.08
 20
9.60
  0
VERTEX
  8
1
 10
187.67
 20
5.92
  0
VERTEX
  8
1
 10
187.70
 20
5.73
  0
VERTEX
  8
1
 10
187.72
 20
5.53
  0
VERTEX
  8
1
 10
188.11
 20
1.82
  0
VERTEX
  8
1
 10
188.12
 20
1.63
  0
VERTEX
  8
1
 10
188.14
 20
1.44
  0
VERTEX
  8
1
 10
188.32
 20
-2.29
  0
VERTEX
  8
1
 10
188.32
 20
-2.48
  0
VERTEX
  8
1
 10
188.33
 20
-2.67
  0
VERTEX
  8
1
 10
188.30
 20
-6.23
  0
VERTEX
  8
1
 10
188.30
 20
-6.23
  0
VERTEX
  8
1
 10
188.29
 20
-9.12
  0
VERTEX
  8
1
 10
188.28
 20
-9.29
  0
VERTEX
  8
1
 10
188.28
 20
-9.45
  0
VERTEX
  8
1
 10
188.14
 20
-12.17
  0
VERTEX
  8
1
 10
188.13
 20
-12.33
  0
VERTEX
  8
1
 10
188.11
 20
-12.50
  0
VERTEX
  8
1
 10
187.84
 20
-15.21
  0
VERTEX
  8
1
 10
187.83
 20
-15.37
  0
VERTEX
  8
1
 10
187.80
 20
-15.54
  0
VERTEX
  8
1
 10
187.41
 20
-18.24
  0
VERTEX
  8
1
 10
187.38
 20
-18.40
  0
VERTEX
  8
1
 10
187.35
 20
-18.56
  0
VERTEX
  8
1
 10
186.83
 20
-21.24
  0
VERTEX
  8
1
 10
186.80
 20
-21.40
  0
VERTEX
  8
1
 10
186.76
 20
-21.56
  0
VERTEX
  8
1
 10
186.11
 20
-24.21
  0
VERTEX
  8
1
 10
186.07
 20
-24.37
  0
VERTEX
  8
1
 10
186.03
 20
-24.52
  0
VERTEX
  8
1
 10
185.26
 20
-27.14
  0
VERTEX
  8
1
 10
185.21
 20
-27.30
  0
VERTEX
  8
1
 10
185.16
 20
-27.45
  0
VERTEX
  8
1
 10
184.26
 20
-30.04
  0
VERTEX
  8
1
 10
184.21
 20
-30.19
  0
VERTEX
  8
1
 10
184.15
 20
-30.34
  0
VERTEX
  8
1
 10
183.14
 20
-32.87
  0
VERTEX
  8
1
 10
183.08
 20
-33.02
  0
VERTEX
  8
1
 10
183.01
 20
-33.17
  0
VERTEX
  8
1
 10
181.88
 20
-35.66
  0
VERTEX
  8
1
 10
181.81
 20
-35.81
  0
VERTEX
  8
1
 10
181.74
 20
-35.95
  0
VERTEX
  8
1
 10
180.49
 20
-38.38
  0
VERTEX
  8
1
 10
180.42
 20
-38.53
  0
VERTEX
  8
1
 10
180.34
 20
-38.67
  0
VERTEX
  8
1
 10
178.98
 20
-41.04
  0
VERTEX
  8
1
 10
178.90
 20
-41.18
  0
VERTEX
  8
1
 10
178.81
 20
-41.32
  0
VERTEX
  8
1
 10
177.34
 20
-43.62
  0
VERTEX
  8
1
 10
177.25
 20
-43.75
  0
VERTEX
  8
1
 10
177.16
 20
-43.89
  0
VERTEX
  8
1
 10
175.59
 20
-46.12
  0
VERTEX
  8
1
 10
175.49
 20
-46.25
  0
VERTEX
  8
1
 10
175.39
 20
-46.38
  0
VERTEX
  8
1
 10
173.72
 20
-48.53
  0
VERTEX
  8
1
 10
173.60
 20
-48.68
  0
VERTEX
  8
1
 10
173.51
 20
-48.79
  0
VERTEX
  8
1
 10
171.73
 20
-50.86
  0
VERTEX
  8
1
 10
171.65
 20
-50.96
  0
VERTEX
  8
1
 10
171.56
 20
-51.06
  0
VERTEX
  8
1
 10
168.71
 20
-54.14
  0
VERTEX
  8
1
 10
168.64
 20
-54.22
  0
VERTEX
  8
1
 10
168.56
 20
-54.29
  0
VERTEX
  8
1
 10
165.63
 20
-57.28
  0
VERTEX
  8
1
 10
165.55
 20
-57.36
  0
VERTEX
  8
1
 10
165.48
 20
-57.43
  0
VERTEX
  8
1
 10
162.45
 20
-60.34
  0
VERTEX
  8
1
 10
162.38
 20
-60.41
  0
VERTEX
  8
1
 10
162.30
 20
-60.48
  0
VERTEX
  8
1
 10
159.19
 20
-63.29
  0
VERTEX
  8
1
 10
159.11
 20
-63.36
  0
VERTEX
  8
1
 10
159.03
 20
-63.43
  0
VERTEX
  8
1
 10
155.84
 20
-66.15
  0
VERTEX
  8
1
 10
155.76
 20
-66.22
  0
VERTEX
  8
1
 10
155.68
 20
-66.28
  0
VERTEX
  8
1
 10
152.41
 20
-68.91
  0
VERTEX
  8
1
 10
152.32
 20
-68.97
  0
VERTEX
  8
1
 10
152.24
 20
-69.03
  0
VERTEX
  8
1
 10
148.88
 20
-71.57
  0
VERTEX
  8
1
 10
148.73
 20
-71.68
  0
VERTEX
  8
1
 10
145.30
 20
-74.11
  0
VERTEX
  8
1
 10
145.22
 20
-74.17
  0
VERTEX
  8
1
 10
145.13
 20
-74.23
  0
VERTEX
  8
1
 10
141.64
 20
-76.55
  0
VERTEX
  8
1
 10
141.55
 20
-76.61
  0
VERTEX
  8
1
 10
141.47
 20
-76.67
  0
VERTEX
  8
1
 10
137.90
 20
-78.89
  0
VERTEX
  8
1
 10
137.82
 20
-78.94
  0
VERTEX
  8
1
 10
137.73
 20
-78.99
  0
VERTEX
  8
1
 10
134.10
 20
-81.11
  0
VERTEX
  8
1
 10
134.01
 20
-81.16
  0
VERTEX
  8
1
 10
133.92
 20
-81.21
  0
VERTEX
  8
1
 10
131.64
 20
-82.45
  0
VERTEX
  8
1
 10
130.24
 20
-83.21
  0
VERTEX
  8
1
 10
130.15
 20
-83.26
  0
VERTEX
  8
1
 10
130.05
 20
-83.31
  0
VERTEX
  8
1
 10
126.31
 20
-85.20
  0
VERTEX
  8
1
 10
126.22
 20
-85.25
  0
VERTEX
  8
1
 10
126.12
 20
-85.30
  0
VERTEX
  8
1
 10
122.33
 20
-87.08
  0
VERTEX
  8
1
 10
122.33
 20
-87.08
  0
VERTEX
  8
1
 10
122.23
 20
-87.12
  0
VERTEX
  8
1
 10
122.14
 20
-87.16
  0
VERTEX
  8
1
 10
118.29
 20
-88.83
  0
VERTEX
  8
1
 10
118.19
 20
-88.88
  0
VERTEX
  8
1
 10
118.10
 20
-88.91
  0
VERTEX
  8
1
 10
114.42
 20
-90.38
  0
VERTEX
  8
1
 10
107.56
 20
-93.68
  0
VERTEX
  8
1
 10
100.75
 20
-97.25
  0
VERTEX
  8
1
 10
94.05
 20
-101.08
  0
VERTEX
  8
1
 10
87.54
 20
-105.10
  0
VERTEX
  8
1
 10
83.98
 20
-107.55
  0
VERTEX
  8
1
 10
80.64
 20
-110.15
  0
VERTEX
  8
1
 10
77.44
 20
-112.97
  0
VERTEX
  8
1
 10
74.54
 20
-115.85
  0
VERTEX
  8
1
 10
71.45
 20
-119.72
  0
VERTEX
  8
1
 10
68.43
 20
-123.93
  0
VERTEX
  8
1
 10
65.63
 20
-128.30
  0
VERTEX
  8
1
 10
63.05
 20
-132.84
  0
VERTEX
  8
1
 10
60.21
 20
-138.47
  0
VERTEX
  8
1
 10
57.60
 20
-144.24
  0
VERTEX
  8
1
 10
55.26
 20
-150.13
  0
VERTEX
  8
1
 10
53.12
 20
-156.26
  0
VERTEX
  8
1
 10
51.49
 20
-160.94
  0
VERTEX
  8
1
 10
46.53
 20
-160.96
  0
VERTEX
  8
1
 10
20.02
 20
-161.04
  0
VERTEX
  8
1
 10
20.02
 20
-161.04
  0
VERTEX
  8
1
 10
0.00
 20
-161.11
  0
VERTEX
  8
1
 10
0.00
 20
-154.04
  0
VERTEX
  8
1
 10
0.00
 20
154.11
  0
VERTEX
  8
1
 10
0.00
 20
161.11
  0
VERTEX
  8
1
 10
20.00
 20
161.11
  0
VERTEX
  8
1
 10
20.00
 20
161.11
  0
VERTEX
  8
1
 10
46.51
 20
161.11
  0
VERTEX
  8
1
 10
52.20
 20
161.11
  0
VERTEX
  8
1
 10
52.20
 20
161.11
  0
SEQEND
  0
POINT
  8
2
 10
52.20
 20
161.11
  0
TEXT
  8
1
 10
52.20
 20
161.11
 40
8.00
  1
# 8
  0
POINT
  8
3
 10
53.36
 20
155.54
  0
TEXT
  8
1
 10
53.36
 20
155.54
 40
8.00
  1
# 9
  0
POINT
  8
3
 10
53.95
 20
152.72
  0
POINT
  8
3
 10
54.66
 20
150.18
  0
POINT
  8
3
 10
55.55
 20
147.70
  0
POINT
  8
3
 10
56.60
 20
145.28
  0
POINT
  8
3
 10
57.81
 20
142.95
  0
POINT
  8
3
 10
59.20
 20
140.69
  0
POINT
  8
3
 10
60.72
 20
138.54
  0
POINT
  8
3
 10
62.42
 20
136.46
  0
POINT
  8
3
 10
65.33
 20
133.29
  0
POINT
  8
3
 10
68.40
 20
130.23
  0
POINT
  8
3
 10
71.61
 20
127.31
  0
POINT
  8
3
 10
74.95
 20
124.54
  0
POINT
  8
3
 10
78.41
 20
121.92
  0
POINT
  8
3
 10
81.98
 20
119.46
  0
POINT
  8
3
 10
85.71
 20
117.14
  0
POINT
  8
3
 10
94.54
 20
112.00
  0
POINT
  8
3
 10
94.65
 20
111.94
  0
POINT
  8
3
 10
94.77
 20
111.86
  0
POINT
  8
3
 10
104.33
 20
105.81
  0
POINT
  8
3
 10
104.42
 20
105.75
  0
POINT
  8
3
 10
104.52
 20
105.69
  0
POINT
  8
3
 10
113.88
 20
99.32
  0
POINT
  8
3
 10
113.99
 20
99.25
  0
POINT
  8
3
 10
114.07
 20
99.19
  0
POINT
  8
3
 10
123.22
 20
92.52
  0
POINT
  8
3
 10
123.32
 20
92.45
  0
POINT
  8
3
 10
123.41
 20
92.38
  0
POINT
  8
3
 10
132.01
 20
85.66
  0
POINT
  8
3
 10
132.10
 20
85.59
  0
POINT
  8
3
 10
132.21
 20
85.50
  0
POINT
  8
3
 10
133.47
 20
84.44
  0
POINT
  8
3
 10
140.24
 20
78.75
  0
POINT
  8
3
 10
140.34
 20
78.67
  0
POINT
  8
3
 10
140.43
 20
78.59
  0
POINT
  8
3
 10
148.22
 20
71.56
  0
POINT
  8
3
 10
148.32
 20
71.47
  0
POINT
  8
3
 10
148.41
 20
71.39
  0
POINT
  8
3
 10
155.95
 20
64.08
  0
POINT
  8
3
 10
156.08
 20
63.95
  0
POINT
  8
3
 10
159.75
 20
60.20
  0
POINT
  8
3
 10
159.88
 20
60.06
  0
POINT
  8
3
 10
160.01
 20
59.92
  0
POINT
  8
3
 10
163.22
 20
56.26
  0
POINT
  8
3
 10
163.32
 20
56.15
  0
POINT
  8
3
 10
163.41
 20
56.04
  0
POINT
  8
3
 10
166.47
 20
52.25
  0
POINT
  8
3
 10
166.56
 20
52.13
  0
POINT
  8
3
 10
166.65
 20
52.02
  0
POINT
  8
3
 10
169.55
 20
48.10
  0
POINT
  8
3
 10
169.63
 20
47.98
  0
POINT
  8
3
 10
169.72
 20
47.86
  0
POINT
  8
3
 10
172.45
 20
43.83
  0
POINT
  8
3
 10
172.53
 20
43.71
  0
POINT
  8
3
 10
172.61
 20
43.58
  0
POINT
  8
3
 10
175.17
 20
39.44
  0
POINT
  8
3
 10
175.24
 20
39.31
  0
POINT
  8
3
 10
175.32
 20
39.19
  0
POINT
  8
3
 10
177.70
 20
34.94
  0
POINT
  8
3
 10
177.77
 20
34.81
  0
POINT
  8
3
 10
177.84
 20
34.68
  0
POINT
  8
3
 10
180.04
 20
30.33
  0
POINT
  8
3
 10
180.11
 20
30.20
  0
POINT
  8
3
 10
180.17
 20
30.07
  0
POINT
  8
3
 10
182.19
 20
25.64
  0
POINT
  8
3
 10
182.26
 20
25.48
  0
POINT
  8
3
 10
182.32
 20
25.33
  0
POINT
  8
3
 10
183.70
 20
21.86
  0
POINT
  8
3
 10
183.78
 20
21.66
  0
POINT
  8
3
 10
183.83
 20
21.50
  0
POINT
  8
3
 10
185.02
 20
17.96
  0
POINT
  8
3
 10
185.08
 20
17.78
  0
POINT
  8
3
 10
185.13
 20
17.59
  0
POINT
  8
3
 10
186.13
 20
14.00
  0
POINT
  8
3
 10
186.17
 20
13.81
  0
POINT
  8
3
 10
186.22
 20
13.62
  0
POINT
  8
3
 10
187.01
 20
9.98
  0
POINT
  8
3
 10
187.05
 20
9.79
  0
POINT
  8
3
 10
187.08
 20
9.60
  0
POINT
  8
3
 10
187.67
 20
5.92
  0
POINT
  8
3
 10
187.70
 20
5.73
  0
POINT
  8
3
 10
187.72
 20
5.53
  0
POINT
  8
3
 10
188.11
 20
1.82
  0
POINT
  8
3
 10
188.12
 20
1.63
  0
POINT
  8
3
 10
188.14
 20
1.44
  0
POINT
  8
3
 10
188.32
 20
-2.29
  0
POINT
  8
3
 10
188.32
 20
-2.48
  0
POINT
  8
3
 10
188.33
 20
-2.67
  0
POINT
  8
2
 10
188.30
 20
-6.23
  0
POINT
  8
2
 10
188.30
 20
-6.23
  0
TEXT
  8
1
 10
188.30
 20
-6.23
 40
8.00
  1
# 10
  0
POINT
  8
3
 10
188.29
 20
-9.12
  0
POINT
  8
3
 10
188.28
 20
-9.29
  0
POINT
  8
3
 10
188.28
 20
-9.45
  0
POINT
  8
3
 10
188.14
 20
-12.17
  0
POINT
  8
3
 10
188.13
 20
-12.33
  0
POINT
  8
3
 10
188.11
 20
-12.50
  0
POINT
  8
3
 10
187.84
 20
-15.21
  0
POINT
  8
3
 10
187.83
 20
-15.37
  0
POINT
  8
3
 10
187.80
 20
-15.54
  0
POINT
  8
3
 10
187.41
 20
-18.24
  0
POINT
  8
3
 10
187.38
 20
-18.40
  0
POINT
  8
3
 10
187.35
 20
-18.56
  0
POINT
  8
3
 10
186.83
 20
-21.24
  0
POINT
  8
3
 10
186.80
 20
-21.40
  0
POINT
  8
3
 10
186.76
 20
-21.56
  0
POINT
  8
3
 10
186.11
 20
-24.21
  0
POINT
  8
3
 10
186.07
 20
-24.37
  0
POINT
  8
3
 10
186.03
 20
-24.52
  0
POINT
  8
3
 10
185.26
 20
-27.14
  0
POINT
  8
3
 10
185.21
 20
-27.30
  0
POINT
  8
3
 10
185.16
 20
-27.45
  0
POINT
  8
3
 10
184.26
 20
-30.04
  0
POINT
  8
3
 10
184.21
 20
-30.19
  0
POINT
  8
3
 10
184.15
 20
-30.34
  0
POINT
  8
3
 10
183.14
 20
-32.87
  0
POINT
  8
3
 10
183.08
 20
-33.02
  0
POINT
  8
3
 10
183.01
 20
-33.17
  0
POINT
  8
3
 10
181.88
 20
-35.66
  0
POINT
  8
3
 10
181.81
 20
-35.81
  0
POINT
  8
3
 10
181.74
 20
-35.95
  0
POINT
  8
3
 10
180.49
 20
-38.38
  0
POINT
  8
3
 10
180.42
 20
-38.53
  0
POINT
  8
3
 10
180.34
 20
-38.67
  0
POINT
  8
3
 10
178.98
 20
-41.04
  0
POINT
  8
3
 10
178.90
 20
-41.18
  0
POINT
  8
3
 10
178.81
 20
-41.32
  0
POINT
  8
3
 10
177.34
 20
-43.62
  0
POINT
  8
3
 10
177.25
 20
-43.75
  0
POINT
  8
3
 10
177.16
 20
-43.89
  0
POINT
  8
3
 10
175.59
 20
-46.12
  0
POINT
  8
3
 10
175.49
 20
-46.25
  0
POINT
  8
3
 10
175.39
 20
-46.38
  0
POINT
  8
3
 10
173.72
 20
-48.53
  0
POINT
  8
3
 10
173.60
 20
-48.68
  0
POINT
  8
3
 10
173.51
 20
-48.79
  0
POINT
  8
3
 10
171.73
 20
-50.86
  0
POINT
  8
3
 10
171.65
 20
-50.96
  0
POINT
  8
3
 10
171.56
 20
-51.06
  0
POINT
  8
3
 10
168.71
 20
-54.14
  0
POINT
  8
3
 10
168.64
 20
-54.22
  0
POINT
  8
3
 10
168.56
 20
-54.29
  0
POINT
  8
3
 10
165.63
 20
-57.28
  0
POINT
  8
3
 10
165.55
 20
-57.36
  0
POINT
  8
3
 10
165.48
 20
-57.43
  0
POINT
  8
3
 10
162.45
 20
-60.34
  0
POINT
  8
3
 10
162.38
 20
-60.41
  0
POINT
  8
3
 10
162.30
 20
-60.48
  0
POINT
  8
3
 10
159.19
 20
-63.29
  0
POINT
  8
3
 10
159.11
 20
-63.36
  0
POINT
  8
3
 10
159.03
 20
-63.43
  0
POINT
  8
3
 10
155.84
 20
-66.15
  0
POINT
  8
3
 10
155.76
 20
-66.22
  0
POINT
  8
3
 10
155.68
 20
-66.28
  0
POINT
  8
3
 10
152.41
 20
-68.91
  0
POINT
  8
3
 10
152.32
 20
-68.97
  0
POINT
  8
3
 10
152.24
 20
-69.03
  0
POINT
  8
3
 10
148.88
 20
-71.57
  0
POINT
  8
3
 10
148.73
 20
-71.68
  0
POINT
  8
3
 10
145.30
 20
-74.11
  0
POINT
  8
3
 10
145.22
 20
-74.17
  0
POINT
  8
3
 10
145.13
 20
-74.23
  0
POINT
  8
3
 10
141.64
 20
-76.55
  0
POINT
  8
3
 10
141.55
 20
-76.61
  0
POINT
  8
3
 10
141.47
 20
-76.67
  0
POINT
  8
3
 10
137.90
 20
-78.89
  0
POINT
  8
3
 10
137.82
 20
-78.94
  0
POINT
  8
3
 10
137.73
 20
-78.99
  0
POINT
  8
3
 10
134.10
 20
-81.11
  0
POINT
  8
3
 10
134.01
 20
-81.16
  0
POINT
  8
3
 10
133.92
 20
-81.21
  0
POINT
  8
3
 10
131.64
 20
-82.45
  0
POINT
  8
3
 10
130.24
 20
-83.21
  0
POINT
  8
3
 10
130.15
 20
-83.26
  0
POINT
  8
3
 10
130.05
 20
-83.31
  0
POINT
  8
3
 10
126.31
 20
-85.20
  0
POINT
  8
3
 10
126.22
 20
-85.25
  0
POINT
  8
3
 10
126.12
 20
-85.30
  0
POINT
  8
2
 10
122.33
 20
-87.08
  0
POINT
  8
2
 10
122.33
 20
-87.08
  0
POINT
  8
3
 10
122.23
 20
-87.12
  0
POINT
  8
3
 10
122.14
 20
-87.16
  0
POINT
  8
3
 10
118.29
 20
-88.83
  0
POINT
  8
3
 10
118.19
 20
-88.88
  0
POINT
  8
3
 10
118.10
 20
-88.91
  0
POINT
  8
3
 10
114.42
 20
-90.38
  0
POINT
  8
3
 10
107.56
 20
-93.68
  0
POINT
  8
3
 10
100.75
 20
-97.25
  0
POINT
  8
3
 10
94.05
 20
-101.08
  0
POINT
  8
3
 10
87.54
 20
-105.10
  0
POINT
  8
3
 10
83.98
 20
-107.55
  0
POINT
  8
3
 10
80.64
 20
-110.15
  0
POINT
  8
3
 10
77.44
 20
-112.97
  0
POINT
  8
3
 10
74.54
 20
-115.85
  0
POINT
  8
3
 10
71.45
 20
-119.72
  0
POINT
  8
3
 10
68.43
 20
-123.93
  0
POINT
  8
3
 10
65.63
 20
-128.30
  0
POINT
  8
3
 10
63.05
 20
-132.84
  0
POINT
  8
3
 10
60.21
 20
-138.47
  0
POINT
  8
3
 10
57.60
 20
-144.24
  0
POINT
  8
3
 10
55.26
 20
-150.13
  0
POINT
  8
3
 10
53.12
 20
-156.26
  0
TEXT
  8
1
 10
53.12
 20
-156.26
 40
8.00
  1
# 11
  0
POINT
  8
2
 10
51.49
 20
-160.94
  0
TEXT
  8
1
 10
51.49
 20
-160.94
 40
8.00
  1
# 12
  0
POINT
  8
3
 10
46.53
 20
-160.96
  0
POINT
  8
2
 10
20.02
 20
-161.04
  0
POINT
  8
2
 10
20.02
 20
-161.04
  0
POINT
  8
2
 10
0.00
 20
-161.11
  0
TEXT
  8
1
 10
0.00
 20
-161.11
 40
8.00
  1
# 13
  0
POINT
  8
3
 10
0.00
 20
-154.04
  0
POINT
  8
3
 10
0.00
 20
154.11
  0
POINT
  8
2
 10
0.00
 20
161.11
  0
TEXT
  8
1
 10
0.00
 20
161.11
 40
8.00
  1
# 14
  0
POINT
  8
2
 10
20.00
 20
161.11
  0
POINT
  8
2
 10
20.00
 20
161.11
  0
POINT
  8
3
 10
46.51
 20
161.11
  0
POINT
  8
2
 10
52.20
 20
161.11
  0
TEXT
  8
1
 10
52.20
 20
161.11
 40
8.00
  1
# 15
  0
POINT
  8
2
 10
52.20
 20
161.11
  0
TEXT
  8
1
 10
52.20
 20
161.11
 40
8.00
  1
# 8
  0
LINE
  8
7
 10
45.95
 20
-10.23
 11
122.16
 21
-10.23
  0
TEXT
  8
7
 10
45.95
 20
-10.23
 40
8.00
  1
# 1
  0
TEXT
  8
7
 10
122.16
 20
-10.23
 40
8.00
  1
# 1
  0
TEXT
  8
4
 10
133.47
 20
84.44
 40
8.00
  1
# 16
  0
POINT
 39
0.01
  8
4
 10
133.47
 20
84.44
 30
3.00
 50
50.660991
  0
TEXT
  8
4
 10
188.30
 20
-6.23
 40
8.00
  1
# 17
  0
POINT
 39
0.01
  8
4
 10
188.30
 20
-6.23
 30
3.00
 50
1.059917
  0
TEXT
  8
4
 10
131.64
 20
-82.45
 40
8.00
  1
# 18
  0
POINT
 39
0.01
  8
4
 10
131.64
 20
-82.45
 30
3.00
 50
-61.642212
  0
TEXT
  8
4
 10
122.33
 20
-87.08
 40
8.00
  1
# 19
  0
POINT
 39
0.01
  8
4
 10
122.33
 20
-87.08
 30
3.00
 50
-65.689082
  0
TEXT
  8
4
 10
20.02
 20
-161.04
 40
8.00
  1
# 20
  0
POINT
 39
0.01
  8
4
 10
20.02
 20
-161.04
 30
3.00
 50
-90
  0
TEXT
  8
4
 10
20.00
 20
161.11
 40
8.00
  1
# 21
  0
POINT
 39
0.01
  8
4
 10
20.00
 20
161.11
 30
3.00
 50
90.000029
  0
TEXT
  8
1
 10
0.00
 20
-181.11
 40
8.00
  1
Piece Name: GRADA3
  0
TEXT
  8
1
 10
0.00
 20
-191.11
 40
8.00
  1
Size: 38
  0
TEXT
  8
1
 10
0.00
 20
-201.11
 40
8.00
  1
Annotation: MANCHE 2XT1
  0
TEXT
  8
1
 10
0.00
 20
-211.11
 40
8.00
  1
Quantity: 1
  0
TEXT
  8
1
 10
0.00
 20
-221.11
 40
8.00
  1
Category: 
  0
ENDBLK
  0
ENDSEC
  0
SECTION
  2
ENTITIES
  0
INSERT
  8
1
  2
GRADA3-38
 10
0.00
 20
0.00
  0
TEXT
  8
1
 10
0.00
 20
226.11
 40
8.00
  1
Style Name: GRADA3
  0
TEXT
  8
1
 10
0.00
 20
216.11
 40
8.00
  1
Creation Date: 2017-06-12
  0
TEXT
  8
1
 10
0.00
 20
206.11
 40
8.00
  1
Creation Time: 17:15:40
  0
TEXT
  8
1
 10
0.00
 20
196.11
 40
8.00
  1
Author: LECTRA (SA) CESTAS, FRANCE
  0
TEXT
  8
1
 10
0.00
 20
186.11
 40
8.00
  1
Sample Size: 38
  0
TEXT
  8
1
 10
0.00
 20
176.11
 40
8.00
  1
Grade Rule Table: GRADA3
  0
TEXT
  8
1
 10
0.00
 20
166.11
 40
8.00
  1
Units: METRIC
  0
ENDSEC
  0
EOF
